<?xml version="1.0" standalone="no"?>
<!DOCTYPE svg PUBLIC "-//W3C//DTD SVG 20010904//EN"
 "http://www.w3.org/TR/2001/REC-SVG-20010904/DTD/svg10.dtd">
<svg version="1.0" xmlns="http://www.w3.org/2000/svg"
 width="700.000000pt" height="700.000000pt" viewBox="0 0 700.000000 700.000000"
 preserveAspectRatio="xMidYMid meet">
<metadata>
Created by potrace 1.11, written by Peter Selinger 2001-2013
</metadata>
<g transform="translate(0.000000,700.000000) scale(0.100000,-0.100000)"
fill="#000000" stroke="none">
<path d="M886 6811 c-3 -5 -8 -35 -11 -67 -3 -33 -7 -79 -10 -104 -3 -25 -8
-67 -10 -95 -13 -124 -16 -153 -20 -195 -7 -59 -14 -135 -20 -190 -2 -25 -7
-70 -10 -100 -3 -30 -7 -80 -10 -110 -3 -30 -7 -71 -10 -90 -2 -19 -7 -69 -10
-110 -3 -41 -8 -82 -10 -90 -2 -8 -6 -51 -10 -95 -3 -44 -8 -91 -10 -105 -2
-14 -6 -56 -10 -95 -3 -38 -8 -88 -10 -110 -3 -22 -7 -65 -10 -95 -5 -60 -42
-427 -50 -502 -3 -27 -7 -72 -10 -100 -3 -29 -7 -73 -10 -98 -3 -25 -8 -76
-11 -115 -3 -38 -8 -77 -9 -86 -2 -9 -6 -56 -10 -105 -4 -49 -9 -97 -11 -108
-2 -10 -6 -53 -10 -94 -3 -42 -7 -83 -9 -91 -1 -9 -6 -54 -10 -101 -4 -47 -9
-92 -10 -102 -2 -9 -6 -53 -10 -98 -4 -45 -8 -90 -10 -100 -2 -9 -6 -57 -10
-106 -4 -49 -8 -91 -10 -94 -2 -3 -6 -48 -10 -100 -4 -52 -8 -97 -10 -100 -1
-3 -6 -45 -10 -94 -4 -50 -8 -97 -10 -106 -2 -9 -6 -50 -10 -91 -3 -41 -8 -90
-10 -109 -2 -19 -6 -62 -9 -95 -3 -33 -8 -78 -10 -100 -3 -22 -8 -67 -11 -100
-3 -33 -7 -80 -10 -105 -3 -25 -7 -72 -10 -105 -3 -33 -8 -77 -10 -99 -3 -21
-7 -66 -10 -100 -3 -33 -7 -77 -10 -96 -3 -19 -8 -64 -10 -99 -3 -36 -8 -80
-10 -98 -2 -19 -7 -68 -11 -110 -3 -42 -7 -84 -9 -93 -2 -9 -6 -54 -10 -101
-4 -46 -8 -91 -10 -99 -2 -8 -6 -49 -9 -90 -4 -41 -9 -91 -11 -110 -2 -19 -7
-64 -10 -100 -3 -36 -8 -81 -10 -100 -2 -19 -7 -64 -10 -100 -3 -36 -8 -81
-10 -100 -3 -19 -7 -63 -10 -96 -3 -34 -7 -80 -10 -103 -6 -48 -11 -93 -20
-203 l-7 -76 845 -1 845 0 6 37 c5 35 7 60 21 207 3 33 8 76 10 95 2 19 7 64
10 100 4 36 8 76 10 90 2 14 7 63 10 108 4 46 8 91 10 100 1 10 6 55 10 102 4
47 9 92 10 100 2 9 6 47 9 85 4 39 9 90 12 115 12 110 22 214 29 285 3 33 7
76 10 95 2 19 7 67 11 105 3 39 8 84 10 100 1 17 6 62 9 101 3 39 8 79 10 90
2 10 4 36 4 57 l1 37 816 -2 815 -3 73 -165 c40 -91 112 -255 161 -365 48
-110 103 -233 122 -273 18 -39 33 -74 33 -76 0 -3 15 -37 34 -78 18 -40 66
-147 106 -238 40 -91 80 -183 90 -205 10 -22 52 -118 94 -213 42 -95 86 -196
100 -225 13 -28 35 -78 49 -109 l25 -57 920 0 920 1 -25 56 c-14 31 -33 75
-43 97 -10 22 -149 337 -310 700 -160 363 -300 678 -310 700 -302 680 -313
707 -299 716 8 5 49 30 92 54 102 60 231 151 343 241 366 296 609 664 744
1130 18 60 33 116 35 124 2 8 8 35 14 60 5 25 12 61 16 80 3 19 7 46 10 60 10
55 29 196 40 298 42 392 -74 852 -307 1225 -241 385 -624 712 -1038 884 -104
44 -233 91 -280 103 -185 47 -250 61 -345 74 -60 8 -128 18 -150 22 -61 11
-3763 16 -3769 5z m3109 -1675 c542 -3 562 -4 635 -25 293 -87 464 -315 455
-609 -4 -159 -58 -286 -171 -399 -34 -35 -65 -63 -69 -63 -5 0 -16 -6 -24 -14
-45 -39 -204 -107 -294 -125 -29 -6 -65 -14 -82 -18 -16 -4 -511 -9 -1099 -10
l-1069 -4 7 78 c4 43 8 92 10 108 2 17 7 63 10 102 4 40 9 80 10 90 2 10 7 52
11 93 3 41 8 86 10 100 2 14 7 59 11 100 10 113 19 207 29 290 6 45 12 107 21
195 3 39 8 77 9 85 2 8 4 20 4 25 1 10 158 11 1586 1z"/>
</g>
</svg>
