<svg viewBox="0 0 934 934" xmlns="http://www.w3.org/2000/svg" fill-rule="evenodd" clip-rule="evenodd" stroke-linejoin="round" stroke-miterlimit="1.414"><path d="M719.733 495.333c-.133.133-2.8.8-5.733 1.2-5.734.8-6.8 1.067-13.867 2.667-6.933 1.6-20.667 8.133-29.2 13.733-15.6 10.4-34.133 32.267-44.267 52.267-9.466 18.933-19.333 52.133-22.133 74.933-.4 4-1.067 8.933-1.333 11.2-1.2 8.8-1.467 48.533-.4 56 2.8 19.333 4.4 27.333 8 38.267 9.066 27.733 23.866 48 45.333 61.866 4.933 3.2 9.333 5.867 9.733 5.867.534 0 3.334 1.2 6.534 2.667 3.2 1.466 12 4.133 19.6 5.866 13.466 3.067 16 3.2 62.666 3.2 53.867 0 63.467-.933 81.734-8 30-11.6 53.466-38 67.066-75.733 5.334-14.8 11.334-39.067 13.067-52 .4-3.333 1.067-7.333 1.333-8.933.4-1.6 1.067-7.067 1.6-12 .534-4.934 1.067-10.934 1.334-13.067.8-7.2.666-38.4-.267-46.667C916.4 567.466 898 531.866 871.6 514c-10.8-7.334-28.267-14.667-42.267-17.467-4.506-.928-107.433-2.119-109.6-1.2zM812 579.2c12 1.6 18.666 7.333 23.333 20.133 4.4 12 3.733 51.467-1.2 84.133-1.733 11.067-8.133 30.934-12.4 38.134-6.8 11.466-15.733 17.466-28.933 18.933-10.4 1.2-74.4.933-79.734-.4-11.733-2.8-20-11.333-24.533-24.933-2-6.4-2.533-11.734-2.533-29.2 0-24.134.933-34.8 4.8-52 8.133-36.667 20.666-52.934 42.266-54.934 4.134-.4 7.734-.8 7.867-.933.797-.531 65.024.392 71.067 1.067z"/><path d="M332.133 508.266c3.867 6.134 12.934 20.667 20.267 32.4 7.333 11.734 14.667 23.467 16.267 26 23.2 36.134 62 98.934 62 100.267 0 1.067-21.867 33.733-58 86.4-3.734 5.467-11.6 16.933-17.334 25.333-5.733 8.4-14.933 21.734-20.266 29.734l-9.867 14.266h107.467l25.733-38.8 25.866-38.666 16.667 26.4A7062.965 7062.965 0 0 0 522 804.666c2.4 3.6 5.866 9.2 7.866 12.4l3.467 5.6h97.333L620 806.933c-5.867-8.533-12.4-18-14.4-20.933-2-2.934-10.667-15.6-19.2-28-23.6-34.667-40.134-58.8-49.067-71.6-5.067-7.334-7.733-12.4-7.2-13.334 2.667-4.4 34.667-52.8 72.533-109.733 22.934-34.533 41.867-63.467 42.267-64.4.533-1.333-9.867-1.6-51.067-1.333l-51.733.4-18.267 28.666c-10.133 15.734-23.6 36.8-29.866 46.667-12.8 20-15.067 23.333-15.734 22.533C478 595.6 469.733 582.133 460 566a15063.804 15063.804 0 0 0-29.733-49.067l-11.867-19.6h-93.067l6.8 10.933z" fill-rule="nonzero"/><path d="M10 823.2l.133-6c.134-6.267 1.867-28.4 2.534-32.134.266-1.2.8-6.533 1.333-12 .4-5.333 1.067-11.2 1.333-13.066.4-1.867.934-7.867 1.334-13.334.4-5.466.933-11.466 1.333-13.333.267-1.867.933-7.867 1.333-13.333.534-5.467 1.067-11.467 1.334-13.334.266-1.866.933-7.866 1.333-13.333.4-5.467 1.067-11.467 1.333-13.333.267-1.867.8-7.867 1.334-13.334.4-5.466 1.066-11.466 1.333-13.333.267-1.867.933-7.2 1.333-12 1.2-13.867 2-21.6 2.667-26.667.4-2.533 1.067-6.8 1.467-9.333.4-2.533 2-9.467 3.466-15.333 7.734-29.334 23.067-54 43.734-70.267 13.466-10.667 35.733-19.867 52.8-21.733 4.266-.534 8.133-1.2 8.4-1.467 2.441-.914 96.561.274 100.133 1.2 1.867.533 5.2 1.2 7.333 1.733 6.8 1.2 16.934 4.667 24.667 8.267 33.867 15.6 56 45.733 61.467 83.6 1.333 9.067 1.733 32 .666 37.333-.266 1.467-.933 7.467-1.466 13.334-.534 5.866-1.067 12.4-1.334 14.666-1.333 12-3.466 31.467-4 36.667-.266 3.333-.933 9.867-1.466 14.667-.934 9.2-.934 9.733-2.4 25.333-.534 5.467-1.2 11.467-1.467 13.333-.267 1.867-.933 8-1.333 13.734-.534 5.733-1.067 11.466-1.334 12.666-.133 1.334-.8 6.8-1.333 12.267-.533 5.467-1.2 10.933-1.333 12.133-.267 1.2-.8 7.2-1.334 13.334-.533 6.133-1.2 11.466-1.466 11.733-.267.4-19.2.667-41.867.667l-41.333.133.533-4c.4-2.267 1.067-8.533 1.467-14 .4-5.467 1.066-11.467 1.333-13.333.267-1.867.933-7.2 1.333-12 .4-4.8 1.067-10.134 1.334-12 .266-1.867.8-7.867 1.333-13.334.533-5.466 1.067-11.466 1.333-13.333.267-1.867.8-7.6 1.334-12.667l.933-9.333-63.2.267c-34.667.133-65.867.266-69.2.4h-6.267l-.933 7.6c-.4 4.266-1.067 9.2-1.333 11.066-.267 1.867-.8 8.134-1.334 14-.533 5.867-1.066 11.6-1.333 12.667-.133 1.067-.8 7.333-1.333 13.867-.534 6.666-1.067 12.933-1.334 14.133-.266 1.2-.8 6.533-1.2 12.133-.933 10.534-1.6 15.2-2.533 16.934-.4.533-18.933.933-41.2.8H10zm169.067-177.067c37.733-.133 69.066-.4 69.333-.8.4-.4 1.067-4.267 1.6-8.667.4-4.4 1.067-10.133 1.467-12.666.933-6.934.933-20.667-.134-24.267-2.8-10-10-16.8-20.666-19.733-6.534-1.734-66.534-2.667-81.334-1.067-21.066 2-30.133 11.333-35.2 35.867-1.2 5.6-2.4 14.933-2.933 20.8l-.8 10.533h68.667z"/><g><path d="M652.266 114.267c.267 1.066-1.466 19.333-2.266 25.066-.267 1.467-.8 6.8-1.2 12-.534 5.067-1.067 11.067-1.334 13.334-.4 2.133-.933 8.533-1.466 14-.534 5.466-1.067 11.466-1.334 13.333-.133 1.867-.8 7.867-1.2 13.333-.533 5.467-1.2 11.467-1.466 13.334-.534 4.133-1.734 15.066-2.667 26.666-.4 4.8-1.067 10.8-1.333 13.334-1.2 10.933-2 18.533-2.667 26.666-.4 4.8-1.067 10.8-1.333 13.334-.267 2.533-1.2 10.933-2 18.666-1.334 13.467-1.867 18.267-3.467 34.667-1.067 11.2-1.867 18.8-2.533 24.667-.267 2.933-.934 8.933-1.334 13.333s-1.066 10.4-1.333 13.333c-.933 7.6-1.733 16-2.8 27.067l-.8 9.733 95.067-.533c52.4-.133 97.066-.8 99.2-1.333 26.933-6.667 49.466-20 65.333-39.067 3.733-4.267 6.933-8.133 7.333-8.533 2.8-2.8 11.6-17.6 17.067-28.667 10.533-21.067 18.533-47.867 20.933-69.333.534-4.4 1.2-9.2 1.467-10.667.8-3.6.667-37.733 0-42a700.802 700.802 0 0 1-1.467-11.333c-1.733-16.534-11.733-47.867-18-56.667-1.466-2.133-2.666-4.267-2.666-4.933 0-2-10.134-15.2-17.734-22.934-10.8-11.066-23.733-19.333-38.133-24.4-16.667-5.733-23.2-6.133-111.867-6.266-45.746-.132-83.069.255-84 .8zM816.8 198c11.466 4.8 20.266 16.267 25.066 32.933 2.8 9.734 3.2 13.334 2.8 29.067-.666 37.867-10.533 68.267-27.466 85.333-11.6 11.467-12.534 11.734-63.067 11.734l-42.4.133.933-11.6c.4-6.4 1.067-12.533 1.334-13.6.266-1.067.8-6.8 1.333-12.667.4-5.866 1.067-11.6 1.333-12.666.267-1.067.8-7.067 1.334-13.334.4-6.266 1.066-12.533 1.333-14 .267-1.466.933-7.2 1.333-12.666.4-5.467 1.334-15.467 2.134-22 2.133-19.2 2.4-22.134 3.2-33.334.533-5.866 1.2-11.733 1.466-13.066.667-2.134 3.867-2.267 42.667-2.267 33.931 0 42.696.395 46.667 2zM449.333 114.133c-2.666.4-16.933 3.2-20 4-.4 0-1.6.4-2.666.8-1.067.4-4.667 1.734-8 2.934-15.2 5.333-32.667 18.8-44.134 33.866-15.6 20.667-30 58.934-33.866 90.267-.534 3.6-1.067 7.6-1.334 8.667-1.466 6-2.666 23.066-2.666 41.333 0 26.267 1.333 37.733 6.133 55.333 6.933 25.067 15.733 40.8 31.733 56.667 15.867 15.733 31.6 24 56 29.333 10.134 2.267 18.8 2.534 90.267 2.667 43.466 0 79.2-.4 79.6-.933.4-.534 1.066-6.534 1.6-13.067.533-6.667 1.066-12.267 1.333-12.667.133-.4.8-5.466 1.2-11.333.533-5.867 1.067-12.133 1.467-14 .266-1.867.8-7.2 1.333-12 .4-4.8.933-10.933 1.333-13.733.4-3.334.134-4.934-1.066-5.067-2.934-.267-52.4-.933-102.267-1.333-26.8-.267-51.866-.934-55.733-1.467-9.333-1.467-16.533-5.2-21.067-11.067-4-5.333-8.4-19.866-8.533-28V310h82.933c81.733 0 82.8 0 83.2-2.667.267-1.466.8-6.933 1.333-12 .4-5.2.934-10.8 1.2-12.666.267-3.334 2-20.4 2.667-26.667.133-1.867.8-6.933 1.2-11.333l.933-8H510.8c-45.6 0-82.8-.534-82.8-1.067 0-2.267 5.6-17.467 7.6-20.8 5.867-9.467 14.667-16 24.267-18.133 2.4-.534 40.666-.934 84.933-.934 58.8 0 80.533-.4 80.666-1.6 0-.8.267-3.6.534-6.133.133-2.533.666-7.733 1.066-11.333.534-3.734 1.2-10.534 1.6-15.334.4-4.8 1.067-11.733 1.467-15.333.4-3.733.933-9.733 1.2-13.333.4-3.734.933-9.467 1.333-13.067l.8-6.267-90.4.134c-49.339.132-91.198.395-93.733.666zM37.2 114.267c0 .533-.267 2-.4 3.066-.267 1.067-.933 6.534-1.467 12-.533 5.467-1.066 10.934-1.333 12-.133 1.067-.8 6.8-1.2 12.667-.533 5.867-1.2 12.8-1.467 15.333-.266 2.534-.8 8-1.2 12-1.6 16.667-3.6 35.6-4.133 40-.267 2.534-.933 9.2-1.333 14.667-.534 5.467-1.067 11.467-1.334 13.333-.533 3.2-.933 6.934-2.666 26-.4 4.4-1.067 10.134-1.334 12.667-.266 2.533-.933 8.533-1.333 13.333-.4 4.8-1.067 10.8-1.333 13.334-.267 2.533-.8 8.533-1.334 13.333-.4 4.8-1.066 10.8-1.333 13.333-1.2 10.4-2.4 22.134-4 39.334-.4 4.4-.933 10.133-1.333 12.666C8.4 395.867 7.733 401.6 7.333 406S6.267 416.667 6 420c-.4 3.333-.933 9.2-1.333 12.933l-.8 7.067h41.466c26.534 0 41.334-.533 41.467-1.333.133-.8.267-1.734.4-2.4.133-.534.8-6.667 1.333-13.6.667-6.934 1.334-13.6 1.467-14.667.533-2.667 2-16.4 2.667-24.667.266-3.733.8-9.066 1.2-12 .4-2.933 1.066-9.733 1.466-14.933.534-5.333 1.067-10.8 1.2-12 .4-2.267 3.2-2.4 40.8-2.4h40.4l7.867 18c4.267 9.867 8.667 19.733 9.733 22a3103.2 3103.2 0 0 0 8 18c3.467 7.733 7.067 15.733 8 18 1.067 2.133 3.6 8 5.867 12.933l4 9.067h45.467c25.066 0 45.2-.4 44.933-1.067-.4-.533-5.6-12-11.6-25.6-5.867-13.6-11.6-26.533-12.667-28.666-11.2-24.534-24.8-55.734-24.4-56 .267-.134 4.667-2.934 9.734-6.267 9.733-6.133 25.733-20.933 31.6-29.2 18.533-25.467 27.2-66.133 20.4-95.333-4.134-18-17.067-40-30.4-52-16.8-15.067-30.534-22.4-54.267-28.934-9.6-2.666-13.867-2.8-106.267-3.2-52.506-.264-95.484-.136-96.533.534zm186.533 84.666c11.734 4.4 18.934 13.6 19.6 25.334.934 15.733-8.8 27.733-26.666 32.8-1.467.4-27.067.8-57.067 1.066l-54.267.267.667-5.467c.4-3.066 1.067-9.466 1.467-14.266.4-4.8.933-10 1.2-11.6.266-1.6.933-8.134 1.333-14.4.8-9.734 1.333-13.867 1.867-16.4C112 196 135.6 196 164.4 196.133c48.133.134 52.933.4 59.333 2.8z"/></g></svg>
