<svg version="1" xmlns="http://www.w3.org/2000/svg" width="933.333" height="933.333" viewBox="0 0 700.000000 700.000000"><path d="M27.9 85.7c0 .4-.2 1.5-.3 2.3-.2.8-.7 4.9-1.1 9-.4 4.1-.8 8.2-1 9-.1.8-.6 5.1-.9 9.5-.4 4.4-.9 9.6-1.1 11.5-.2 1.9-.6 6-.9 9-1.2 12.5-2.7 26.7-3.1 30-.2 1.9-.7 6.9-1 11-.4 4.1-.8 8.6-1 10-.4 2.4-.7 5.2-2 19.5-.3 3.3-.8 7.6-1 9.5-.2 1.9-.7 6.4-1 10-.3 3.6-.8 8.1-1 10-.2 1.9-.6 6.4-1 10-.3 3.6-.8 8.1-1 10-.9 7.8-1.8 16.6-3 29.5-.3 3.3-.7 7.6-1 9.5-.2 1.9-.7 6.2-1 9.5-.3 3.3-.8 8-1 10.5-.3 2.5-.7 6.9-1 9.7l-.6 5.3H34c19.9 0 31-.4 31.1-1 .1-.6.2-1.3.3-1.8.1-.4.6-5 1-10.2.5-5.2 1-10.2 1.1-11 .4-2 1.5-12.3 2-18.5.2-2.8.6-6.8.9-9 .3-2.2.8-7.3 1.1-11.2.4-4 .8-8.1.9-9 .3-1.7 2.4-1.8 30.6-1.8h30.3l5.9 13.5c3.2 7.4 6.5 14.8 7.3 16.5.7 1.6 3.4 7.7 6 13.5s5.3 11.8 6 13.5c.8 1.6 2.7 6 4.4 9.7l3 6.8H200c18.8 0 33.9-.3 33.7-.8-.3-.4-4.2-9-8.7-19.2-4.4-10.2-8.7-19.9-9.5-21.5-8.4-18.4-18.6-41.8-18.3-42 .2-.1 3.5-2.2 7.3-4.7 7.3-4.6 19.3-15.7 23.7-21.9 13.9-19.1 20.4-49.6 15.3-71.5-3.1-13.5-12.8-30-22.8-39-12.6-11.3-22.9-16.8-40.7-21.7-7.2-2-10.4-2.1-79.7-2.4-39.8-.2-72.3-.1-72.4.4zm139.9 63.5c8.8 3.3 14.2 10.2 14.7 19 .7 11.8-6.6 20.8-20 24.6-1.1.3-20.3.6-42.8.8l-40.7.2.5-4.1c.3-2.3.8-7.1 1.1-10.7.3-3.6.7-7.5.9-8.7.2-1.2.7-6.1 1-10.8.6-7.3 1-10.4 1.4-12.3.1-.2 17.8-.2 39.4-.1 36.1.1 39.7.3 44.5 2.1zM337 85.6c-2 .3-12.7 2.4-15 3-.3 0-1.2.3-2 .6s-3.5 1.3-6 2.2c-11.4 4-24.5 14.1-33.1 25.4-11.7 15.5-22.5 44.2-25.4 67.7-.4 2.7-.8 5.7-1 6.5-1.1 4.5-2 17.3-2 31 0 19.7 1 28.3 4.6 41.5 5.2 18.8 11.8 30.6 23.8 42.5 11.9 11.8 23.7 18 42 22 7.6 1.7 14.1 1.9 67.7 2 32.6 0 59.4-.3 59.7-.7.3-.4.8-4.9 1.2-9.8.4-5 .8-9.2 1-9.5.1-.3.6-4.1.9-8.5.4-4.4.8-9.1 1.1-10.5.2-1.4.6-5.4 1-9 .3-3.6.7-8.2 1-10.3.3-2.5.1-3.7-.8-3.8-2.2-.2-39.3-.7-76.7-1-20.1-.2-38.9-.7-41.8-1.1-7-1.1-12.4-3.9-15.8-8.3-3-4-6.3-14.9-6.4-21v-4h62.2c61.3 0 62.1 0 62.4-2 .2-1.1.6-5.2 1-9 .3-3.9.7-8.1.9-9.5.2-2.5 1.5-15.3 2-20 .1-1.4.6-5.2.9-8.5l.7-6h-62c-34.2 0-62.1-.4-62.1-.8 0-1.7 4.2-13.1 5.7-15.6 4.4-7.1 11-12 18.2-13.6 1.8-.4 30.5-.7 63.7-.7 44.1 0 60.4-.3 60.5-1.2 0-.6.2-2.7.4-4.6.1-1.9.5-5.8.8-8.5.4-2.8.9-7.9 1.2-11.5.3-3.6.8-8.8 1.1-11.5.3-2.8.7-7.3.9-10 .3-2.8.7-7.1 1-9.8l.6-4.7-67.8.1c-37.3.1-68.9.3-70.3.5zM489.2 85.7c.2.8-1.1 14.5-1.7 18.8-.2 1.1-.6 5.1-.9 9-.4 3.8-.8 8.3-1 10-.3 1.6-.7 6.4-1.1 10.5-.4 4.1-.8 8.6-1 10-.1 1.4-.6 5.9-.9 10-.4 4.1-.9 8.6-1.1 10-.4 3.1-1.3 11.3-2 20-.3 3.6-.8 8.1-1 10-.9 8.2-1.5 13.9-2 20-.3 3.6-.8 8.1-1 10-.2 1.9-.9 8.2-1.5 14-1 10.1-1.4 13.7-2.6 26-.8 8.4-1.4 14.1-1.9 18.5-.2 2.2-.7 6.7-1 10-.3 3.3-.8 7.8-1 10-.7 5.7-1.3 12-2.1 20.3l-.6 7.3 71.3-.4c39.3-.1 72.8-.6 74.4-1 20.2-5 37.1-15 49-29.3 2.8-3.2 5.2-6.1 5.5-6.4 2.1-2.1 8.7-13.2 12.8-21.5 7.9-15.8 13.9-35.9 15.7-52 .4-3.3.9-6.9 1.1-8 .6-2.7.5-28.3 0-31.5-.2-1.4-.7-5.2-1.1-8.5-1.3-12.4-8.8-35.9-13.5-42.5-1.1-1.6-2-3.2-2-3.7 0-1.5-7.6-11.4-13.3-17.2-8.1-8.3-17.8-14.5-28.6-18.3-12.5-4.3-17.4-4.6-83.9-4.7-34.8-.1-63.1.2-63 .6zm123.4 62.8c8.6 3.6 15.2 12.2 18.8 24.7 2.1 7.3 2.4 10 2.1 21.8-.5 28.4-7.9 51.2-20.6 64-8.7 8.6-9.4 8.8-47.3 8.8l-31.8.1.7-8.7c.3-4.8.8-9.4 1-10.2.2-.8.6-5.1 1-9.5.3-4.4.8-8.7 1-9.5.2-.8.6-5.3 1-10 .3-4.7.8-9.4 1-10.5.2-1.1.7-5.4 1-9.5.3-4.1 1-11.6 1.6-16.5 1.6-14.4 1.8-16.6 2.4-25 .4-4.4.9-8.8 1.1-9.8.5-1.6 2.9-1.7 32-1.7 25.6 0 32.1.3 35 1.5zM539.8 371.5c-.1.1-2.1.6-4.3.9-4.3.6-5.1.8-10.4 2-5.2 1.2-15.5 6.1-21.9 10.3-11.7 7.8-25.6 24.2-33.2 39.2-7.1 14.2-14.5 39.1-16.6 56.2-.3 3-.8 6.7-1 8.4-.9 6.6-1.1 36.4-.3 42 2.1 14.5 3.3 20.5 6 28.7 6.8 20.8 17.9 36 34 46.4 3.7 2.4 7 4.4 7.3 4.4.4 0 2.5.9 4.9 2 2.4 1.1 9 3.1 14.7 4.4 10.1 2.3 12 2.4 47 2.4 40.4 0 47.6-.7 61.3-6 22.5-8.7 40.1-28.5 50.3-56.8 4-11.1 8.5-29.3 9.8-39 .3-2.5.8-5.5 1-6.7.3-1.2.8-5.3 1.2-9 .4-3.7.8-8.2 1-9.8.6-5.4.5-28.8-.2-35-3.1-30.9-16.9-57.6-36.7-71-8.1-5.5-21.2-11-31.7-13.1-3.4-.7-81.5-1.6-82.2-.9zm69.2 62.9c9 1.2 14 5.5 17.5 15.1 3.3 9 2.8 38.6-.9 63.1-1.3 8.3-6.1 23.2-9.3 28.6-5.1 8.6-11.8 13.1-21.7 14.2-7.8.9-55.8.7-59.8-.3-8.8-2.1-15-8.5-18.4-18.7-1.5-4.8-1.9-8.8-1.9-21.9 0-18.1.7-26.1 3.6-39 6.1-27.5 15.5-39.7 31.7-41.2 3.1-.3 5.8-.6 5.9-.7.6-.4 49.2.3 53.3.8zM104.9 372.4c-.2.2-3.1.7-6.3 1.1-12.8 1.4-29.5 8.3-39.6 16.3-15.5 12.2-27 30.7-32.8 52.7-1.1 4.4-2.3 9.6-2.6 11.5-.3 1.9-.8 5.1-1.1 7-.5 3.8-1.1 9.6-2 20-.3 3.6-.8 7.6-1 9-.2 1.4-.7 5.9-1 10-.4 4.1-.8 8.6-1 10-.2 1.4-.7 5.9-1 10-.3 4.1-.8 8.6-1 10-.2 1.4-.6 5.9-1 10-.3 4.1-.8 8.6-1 10-.3 1.4-.7 5.9-1 10-.3 4.1-.7 8.6-1 10-.2 1.4-.7 5.8-1 9.8-.4 4.1-.8 8.1-1 9-.5 2.8-1.8 19.4-1.9 24.1l-.1 4.5h30.3c16.7.1 30.6-.2 30.9-.6.7-1.3 1.2-4.8 1.9-12.7.3-4.2.7-8.2.9-9.1.2-.9.6-5.6 1-10.6.4-4.9.9-9.6 1-10.4.2-.8.6-5.1 1-9.5s.8-9.1 1-10.5c.2-1.4.7-5.1 1-8.3l.7-5.7h4.7c2.5-.1 25.9-.2 51.9-.3l47.4-.2-.7 7c-.4 3.8-.8 8.1-1 9.5-.2 1.4-.6 5.9-1 10s-.8 8.6-1 10c-.2 1.4-.7 5.4-1 9-.3 3.6-.8 7.6-1 9-.2 1.4-.7 5.9-1 10-.3 4.1-.8 8.8-1.1 10.5l-.4 3 31-.1c17 0 31.2-.2 31.4-.5.2-.2.7-4.2 1.1-8.8.4-4.6.8-9.1 1-10 .1-.9.6-5 1-9.1s.9-8.2 1-9.2c.2-.9.6-5.2 1-9.5.3-4.3.8-8.9 1-10.3.2-1.4.7-5.9 1.1-10 1.1-11.7 1.1-12.1 1.8-19 .4-3.6.9-8.5 1.1-11 .4-3.9 2-18.5 3-27.5.2-1.7.6-6.6 1-11s.9-8.9 1.1-10c.8-4 .5-21.2-.5-28-4.1-28.4-20.7-51-46.1-62.7-5.8-2.7-13.4-5.3-18.5-6.2-1.6-.4-4.1-.9-5.5-1.3-2.7-.7-74.4-1.6-75.1-.9zM173 435c8 2.2 13.4 7.3 15.5 14.8.8 2.7.8 13 .1 18.2-.3 1.9-.8 6.2-1.1 9.5-.4 3.3-.9 6.2-1.2 6.5-.2.3-23.7.5-52 .6H82.8l.6-7.9c.4-4.4 1.3-11.4 2.2-15.6 3.8-18.4 10.6-25.4 26.4-26.9 11.1-1.2 56.1-.5 61 .8z"/><path d="M249.1 381.2c2.9 4.6 9.7 15.5 15.2 24.3s11 17.6 12.2 19.5c17.4 27.1 46.5 74.2 46.5 75.2 0 .8-16.4 25.3-43.5 64.8-2.8 4.1-8.7 12.7-13 19-4.3 6.3-11.2 16.3-15.2 22.3l-7.4 10.7h80.6l19.3-29.1 19.4-29 12.5 19.8c6.9 10.9 14 22 15.8 24.8 1.8 2.7 4.4 6.9 5.9 9.3l2.6 4.2h73l-8-11.8c-4.4-6.4-9.3-13.5-10.8-15.7-1.5-2.2-8-11.7-14.4-21-17.7-26-30.1-44.1-36.8-53.7-3.8-5.5-5.8-9.3-5.4-10 2-3.3 26-39.6 54.4-82.3 17.2-25.9 31.4-47.6 31.7-48.3.4-1-7.4-1.2-38.3-1l-38.8.3-13.7 21.5c-7.6 11.8-17.7 27.6-22.4 35-9.6 15-11.3 17.5-11.8 16.9-.2-.2-6.4-10.3-13.7-22.4-7.3-12.1-17.3-28.6-22.3-36.8l-8.9-14.7H244l5.1 8.2z"/></svg>