<?xml version="1.0" encoding="UTF-8" standalone="no"?><!DOCTYPE svg PUBLIC "-//W3C//DTD SVG 1.1//EN" "http://www.w3.org/Graphics/SVG/1.1/DTD/svg11.dtd"><svg width="100%" height="100%" viewBox="0 0 934 934" version="1.1" xmlns="http://www.w3.org/2000/svg" xmlns:xlink="http://www.w3.org/1999/xlink" xml:space="preserve" xmlns:serif="http://www.serif.com/" style="fill-rule:evenodd;clip-rule:evenodd;stroke-linejoin:round;stroke-miterlimit:1.41421;"><g id="axo"><path id="o" d="M719.733,495.333c-0.133,0.133 -2.8,0.8 -5.733,1.2c-5.734,0.8 -6.8,1.067 -13.867,2.667c-6.933,1.6 -20.667,8.133 -29.2,13.733c-15.6,10.4 -34.133,32.267 -44.267,52.267c-9.466,18.933 -19.333,52.133 -22.133,74.933c-0.4,4 -1.067,8.933 -1.333,11.2c-1.2,8.8 -1.467,48.533 -0.4,56c2.8,19.333 4.4,27.333 8,38.267c9.066,27.733 23.866,48 45.333,61.866c4.933,3.2 9.333,5.867 9.733,5.867c0.534,0 3.334,1.2 6.534,2.667c3.2,1.466 12,4.133 19.6,5.866c13.466,3.067 16,3.2 62.666,3.2c53.867,0 63.467,-0.933 81.734,-8c30,-11.6 53.466,-38 67.066,-75.733c5.334,-14.8 11.334,-39.067 13.067,-52c0.4,-3.333 1.067,-7.333 1.333,-8.933c0.4,-1.6 1.067,-7.067 1.6,-12c0.534,-4.934 1.067,-10.934 1.334,-13.067c0.8,-7.2 0.666,-38.4 -0.267,-46.667c-4.133,-41.2 -22.533,-76.8 -48.933,-94.666c-10.8,-7.334 -28.267,-14.667 -42.267,-17.467c-4.506,-0.928 -107.433,-2.119 -109.6,-1.2Zm92.267,83.867c12,1.6 18.666,7.333 23.333,20.133c4.4,12 3.733,51.467 -1.2,84.133c-1.733,11.067 -8.133,30.934 -12.4,38.134c-6.8,11.466 -15.733,17.466 -28.933,18.933c-10.4,1.2 -74.4,0.933 -79.734,-0.4c-11.733,-2.8 -20,-11.333 -24.533,-24.933c-2,-6.4 -2.533,-11.734 -2.533,-29.2c0,-24.134 0.933,-34.8 4.8,-52c8.133,-36.667 20.666,-52.934 42.266,-54.934c4.134,-0.4 7.734,-0.8 7.867,-0.933c0.797,-0.531 65.024,0.392 71.067,1.067Z"/><path id="x" d="M332.133,508.266c3.867,6.134 12.934,20.667 20.267,32.4c7.333,11.734 14.667,23.467 16.267,26c23.2,36.134 62,98.934 62,100.267c0,1.067 -21.867,33.733 -58,86.4c-3.734,5.467 -11.6,16.933 -17.334,25.333c-5.733,8.4 -14.933,21.734 -20.266,29.734l-9.867,14.266l107.467,0l25.733,-38.8l25.866,-38.666l16.667,26.4c9.2,14.533 18.667,29.333 21.067,33.066c2.4,3.6 5.866,9.2 7.866,12.4l3.467,5.6l97.333,0l-10.666,-15.733c-5.867,-8.533 -12.4,-18 -14.4,-20.933c-2,-2.934 -10.667,-15.6 -19.2,-28c-23.6,-34.667 -40.134,-58.8 -49.067,-71.6c-5.067,-7.334 -7.733,-12.4 -7.2,-13.334c2.667,-4.4 34.667,-52.8 72.533,-109.733c22.934,-34.533 41.867,-63.467 42.267,-64.4c0.533,-1.333 -9.867,-1.6 -51.067,-1.333l-51.733,0.4l-18.267,28.666c-10.133,15.734 -23.6,36.8 -29.866,46.667c-12.8,20 -15.067,23.333 -15.734,22.533c-0.266,-0.266 -8.533,-13.733 -18.266,-29.866c-9.733,-16.134 -23.067,-38.134 -29.733,-49.067l-11.867,-19.6l-93.067,0l6.8,10.933Z" style="fill-rule:nonzero;"/><path id="a" d="M10,823.2l0.133,-6c0.134,-6.267 1.867,-28.4 2.534,-32.134c0.266,-1.2 0.8,-6.533 1.333,-12c0.4,-5.333 1.067,-11.2 1.333,-13.066c0.4,-1.867 0.934,-7.867 1.334,-13.334c0.4,-5.466 0.933,-11.466 1.333,-13.333c0.267,-1.867 0.933,-7.867 1.333,-13.333c0.534,-5.467 1.067,-11.467 1.334,-13.334c0.266,-1.866 0.933,-7.866 1.333,-13.333c0.4,-5.467 1.067,-11.467 1.333,-13.333c0.267,-1.867 0.8,-7.867 1.334,-13.334c0.4,-5.466 1.066,-11.466 1.333,-13.333c0.267,-1.867 0.933,-7.2 1.333,-12c1.2,-13.867 2,-21.6 2.667,-26.667c0.4,-2.533 1.067,-6.8 1.467,-9.333c0.4,-2.533 2,-9.467 3.466,-15.333c7.734,-29.334 23.067,-54 43.734,-70.267c13.466,-10.667 35.733,-19.867 52.8,-21.733c4.266,-0.534 8.133,-1.2 8.4,-1.467c2.441,-0.914 96.561,0.274 100.133,1.2c1.867,0.533 5.2,1.2 7.333,1.733c6.8,1.2 16.934,4.667 24.667,8.267c33.867,15.6 56,45.733 61.467,83.6c1.333,9.067 1.733,32 0.666,37.333c-0.266,1.467 -0.933,7.467 -1.466,13.334c-0.534,5.866 -1.067,12.4 -1.334,14.666c-1.333,12 -3.466,31.467 -4,36.667c-0.266,3.333 -0.933,9.867 -1.466,14.667c-0.934,9.2 -0.934,9.733 -2.4,25.333c-0.534,5.467 -1.2,11.467 -1.467,13.333c-0.267,1.867 -0.933,8 -1.333,13.734c-0.534,5.733 -1.067,11.466 -1.334,12.666c-0.133,1.334 -0.8,6.8 -1.333,12.267c-0.533,5.467 -1.2,10.933 -1.333,12.133c-0.267,1.2 -0.8,7.2 -1.334,13.334c-0.533,6.133 -1.2,11.466 -1.466,11.733c-0.267,0.4 -19.2,0.667 -41.867,0.667l-41.333,0.133l0.533,-4c0.4,-2.267 1.067,-8.533 1.467,-14c0.4,-5.467 1.066,-11.467 1.333,-13.333c0.267,-1.867 0.933,-7.2 1.333,-12c0.4,-4.8 1.067,-10.134 1.334,-12c0.266,-1.867 0.8,-7.867 1.333,-13.334c0.533,-5.466 1.067,-11.466 1.333,-13.333c0.267,-1.867 0.8,-7.6 1.334,-12.667l0.933,-9.333l-63.2,0.267c-34.667,0.133 -65.867,0.266 -69.2,0.4l-6.267,0l-0.933,7.6c-0.4,4.266 -1.067,9.2 -1.333,11.066c-0.267,1.867 -0.8,8.134 -1.334,14c-0.533,5.867 -1.066,11.6 -1.333,12.667c-0.133,1.067 -0.8,7.333 -1.333,13.867c-0.534,6.666 -1.067,12.933 -1.334,14.133c-0.266,1.2 -0.8,6.533 -1.2,12.133c-0.933,10.534 -1.6,15.2 -2.533,16.934c-0.4,0.533 -18.933,0.933 -41.2,0.8l-40.4,0Zm169.067,-177.067c37.733,-0.133 69.066,-0.4 69.333,-0.8c0.4,-0.4 1.067,-4.267 1.6,-8.667c0.4,-4.4 1.067,-10.133 1.467,-12.666c0.933,-6.934 0.933,-20.667 -0.134,-24.267c-2.8,-10 -10,-16.8 -20.666,-19.733c-6.534,-1.734 -66.534,-2.667 -81.334,-1.067c-21.066,2 -30.133,11.333 -35.2,35.867c-1.2,5.6 -2.4,14.933 -2.933,20.8l-0.8,10.533l68.667,0Z"/></g><g id="red"><path id="d" d="M652.266,114.267c0.267,1.066 -1.466,19.333 -2.266,25.066c-0.267,1.467 -0.8,6.8 -1.2,12c-0.534,5.067 -1.067,11.067 -1.334,13.334c-0.4,2.133 -0.933,8.533 -1.466,14c-0.534,5.466 -1.067,11.466 -1.334,13.333c-0.133,1.867 -0.8,7.867 -1.2,13.333c-0.533,5.467 -1.2,11.467 -1.466,13.334c-0.534,4.133 -1.734,15.066 -2.667,26.666c-0.4,4.8 -1.067,10.8 -1.333,13.334c-1.2,10.933 -2,18.533 -2.667,26.666c-0.4,4.8 -1.067,10.8 -1.333,13.334c-0.267,2.533 -1.2,10.933 -2,18.666c-1.334,13.467 -1.867,18.267 -3.467,34.667c-1.067,11.2 -1.867,18.8 -2.533,24.667c-0.267,2.933 -0.934,8.933 -1.334,13.333c-0.4,4.4 -1.066,10.4 -1.333,13.333c-0.933,7.6 -1.733,16 -2.8,27.067l-0.8,9.733l95.067,-0.533c52.4,-0.133 97.066,-0.8 99.2,-1.333c26.933,-6.667 49.466,-20 65.333,-39.067c3.733,-4.267 6.933,-8.133 7.333,-8.533c2.8,-2.8 11.6,-17.6 17.067,-28.667c10.533,-21.067 18.533,-47.867 20.933,-69.333c0.534,-4.4 1.2,-9.2 1.467,-10.667c0.8,-3.6 0.667,-37.733 0,-42c-0.267,-1.867 -0.933,-6.933 -1.467,-11.333c-1.733,-16.534 -11.733,-47.867 -18,-56.667c-1.466,-2.133 -2.666,-4.267 -2.666,-4.933c0,-2 -10.134,-15.2 -17.734,-22.934c-10.8,-11.066 -23.733,-19.333 -38.133,-24.4c-16.667,-5.733 -23.2,-6.133 -111.867,-6.266c-45.746,-0.132 -83.069,0.255 -84,0.8Zm164.534,83.733c11.466,4.8 20.266,16.267 25.066,32.933c2.8,9.734 3.2,13.334 2.8,29.067c-0.666,37.867 -10.533,68.267 -27.466,85.333c-11.6,11.467 -12.534,11.734 -63.067,11.734l-42.4,0.133l0.933,-11.6c0.4,-6.4 1.067,-12.533 1.334,-13.6c0.266,-1.067 0.8,-6.8 1.333,-12.667c0.4,-5.866 1.067,-11.6 1.333,-12.666c0.267,-1.067 0.8,-7.067 1.334,-13.334c0.4,-6.266 1.066,-12.533 1.333,-14c0.267,-1.466 0.933,-7.2 1.333,-12.666c0.4,-5.467 1.334,-15.467 2.134,-22c2.133,-19.2 2.4,-22.134 3.2,-33.334c0.533,-5.866 1.2,-11.733 1.466,-13.066c0.667,-2.134 3.867,-2.267 42.667,-2.267c33.931,0 42.696,0.395 46.667,2Z"/><path id="e" d="M449.333,114.133c-2.666,0.4 -16.933,3.2 -20,4c-0.4,0 -1.6,0.4 -2.666,0.8c-1.067,0.4 -4.667,1.734 -8,2.934c-15.2,5.333 -32.667,18.8 -44.134,33.866c-15.6,20.667 -30,58.934 -33.866,90.267c-0.534,3.6 -1.067,7.6 -1.334,8.667c-1.466,6 -2.666,23.066 -2.666,41.333c0,26.267 1.333,37.733 6.133,55.333c6.933,25.067 15.733,40.8 31.733,56.667c15.867,15.733 31.6,24 56,29.333c10.134,2.267 18.8,2.534 90.267,2.667c43.466,0 79.2,-0.4 79.6,-0.933c0.4,-0.534 1.066,-6.534 1.6,-13.067c0.533,-6.667 1.066,-12.267 1.333,-12.667c0.133,-0.4 0.8,-5.466 1.2,-11.333c0.533,-5.867 1.067,-12.133 1.467,-14c0.266,-1.867 0.8,-7.2 1.333,-12c0.4,-4.8 0.933,-10.933 1.333,-13.733c0.4,-3.334 0.134,-4.934 -1.066,-5.067c-2.934,-0.267 -52.4,-0.933 -102.267,-1.333c-26.8,-0.267 -51.866,-0.934 -55.733,-1.467c-9.333,-1.467 -16.533,-5.2 -21.067,-11.067c-4,-5.333 -8.4,-19.866 -8.533,-28l0,-5.333l82.933,0c81.733,0 82.8,0 83.2,-2.667c0.267,-1.466 0.8,-6.933 1.333,-12c0.4,-5.2 0.934,-10.8 1.2,-12.666c0.267,-3.334 2,-20.4 2.667,-26.667c0.133,-1.867 0.8,-6.933 1.2,-11.333l0.933,-8l-82.666,0c-45.6,0 -82.8,-0.534 -82.8,-1.067c0,-2.267 5.6,-17.467 7.6,-20.8c5.867,-9.467 14.667,-16 24.267,-18.133c2.4,-0.534 40.666,-0.934 84.933,-0.934c58.8,0 80.533,-0.4 80.666,-1.6c0,-0.8 0.267,-3.6 0.534,-6.133c0.133,-2.533 0.666,-7.733 1.066,-11.333c0.534,-3.734 1.2,-10.534 1.6,-15.334c0.4,-4.8 1.067,-11.733 1.467,-15.333c0.4,-3.733 0.933,-9.733 1.2,-13.333c0.4,-3.734 0.933,-9.467 1.333,-13.067l0.8,-6.267l-90.4,0.134c-49.339,0.132 -91.198,0.395 -93.733,0.666Z"/><path id="r" d="M37.2,114.267c0,0.533 -0.267,2 -0.4,3.066c-0.267,1.067 -0.933,6.534 -1.467,12c-0.533,5.467 -1.066,10.934 -1.333,12c-0.133,1.067 -0.8,6.8 -1.2,12.667c-0.533,5.867 -1.2,12.8 -1.467,15.333c-0.266,2.534 -0.8,8 -1.2,12c-1.6,16.667 -3.6,35.6 -4.133,40c-0.267,2.534 -0.933,9.2 -1.333,14.667c-0.534,5.467 -1.067,11.467 -1.334,13.333c-0.533,3.2 -0.933,6.934 -2.666,26c-0.4,4.4 -1.067,10.134 -1.334,12.667c-0.266,2.533 -0.933,8.533 -1.333,13.333c-0.4,4.8 -1.067,10.8 -1.333,13.334c-0.267,2.533 -0.8,8.533 -1.334,13.333c-0.4,4.8 -1.066,10.8 -1.333,13.333c-1.2,10.4 -2.4,22.134 -4,39.334c-0.4,4.4 -0.933,10.133 -1.333,12.666c-0.267,2.534 -0.934,8.267 -1.334,12.667c-0.4,4.4 -1.066,10.667 -1.333,14c-0.4,3.333 -0.933,9.2 -1.333,12.933l-0.8,7.067l41.466,0c26.534,0 41.334,-0.533 41.467,-1.333c0.133,-0.8 0.267,-1.734 0.4,-2.4c0.133,-0.534 0.8,-6.667 1.333,-13.6c0.667,-6.934 1.334,-13.6 1.467,-14.667c0.533,-2.667 2,-16.4 2.667,-24.667c0.266,-3.733 0.8,-9.066 1.2,-12c0.4,-2.933 1.066,-9.733 1.466,-14.933c0.534,-5.333 1.067,-10.8 1.2,-12c0.4,-2.267 3.2,-2.4 40.8,-2.4l40.4,0l7.867,18c4.267,9.867 8.667,19.733 9.733,22c0.934,2.133 4.534,10.267 8,18c3.467,7.733 7.067,15.733 8,18c1.067,2.133 3.6,8 5.867,12.933l4,9.067l45.467,0c25.066,0 45.2,-0.4 44.933,-1.067c-0.4,-0.533 -5.6,-12 -11.6,-25.6c-5.867,-13.6 -11.6,-26.533 -12.667,-28.666c-11.2,-24.534 -24.8,-55.734 -24.4,-56c0.267,-0.134 4.667,-2.934 9.734,-6.267c9.733,-6.133 25.733,-20.933 31.6,-29.2c18.533,-25.467 27.2,-66.133 20.4,-95.333c-4.134,-18 -17.067,-40 -30.4,-52c-16.8,-15.067 -30.534,-22.4 -54.267,-28.934c-9.6,-2.666 -13.867,-2.8 -106.267,-3.2c-52.506,-0.264 -95.484,-0.136 -96.533,0.534Zm186.533,84.666c11.734,4.4 18.934,13.6 19.6,25.334c0.934,15.733 -8.8,27.733 -26.666,32.8c-1.467,0.4 -27.067,0.8 -57.067,1.066l-54.267,0.267l0.667,-5.467c0.4,-3.066 1.067,-9.466 1.467,-14.266c0.4,-4.8 0.933,-10 1.2,-11.6c0.266,-1.6 0.933,-8.134 1.333,-14.4c0.8,-9.734 1.333,-13.867 1.867,-16.4c0.133,-0.267 23.733,-0.267 52.533,-0.134c48.133,0.134 52.933,0.4 59.333,2.8Z"/></g></svg>
