<svg class="rex-redaxo-logo" xmlns="http://www.w3.org/2000/svg" viewBox="0 0 516.135 77.678">
<path class="rex-redaxo-logo-r" fill="#5B6D69" d="M47.928,0.575L7.693,0.592L0,77.033h19.478l2.332-23.125h18.772l10.255,23.125h21.2L60.487,50.99
	c10.598-5.783,14.229-13.92,15.102-23.823C76.695,14.604,66.008,0.575,47.928,0.575z M46.456,34.529H23.762l1.477-14.653
	c8.459,0.043,19.314,0.102,23.173,0.102c4.981,0,7.741,3.41,7.741,6.984C56.153,31.677,52.171,34.529,46.456,34.529z"/>
<path class="rex-redaxo-logo-e" fill="#5B6D69" d="M97.223,46.646h38.888l1.733-17.196H99.072c1.625-6.902,4.962-9.58,9.695-9.58l36.62,0.007l1.929-19.29
	l-38.572-0.008c-17.662,0-28.021,10.721-30.669,36.591c-2.507,24.501,8.392,39.864,28.096,39.864h33.421l1.993-19.461
	c-11.1-0.056-29.214-0.323-34.805-0.347C100.123,57.201,97.525,54.595,97.223,46.646z"/>
<path class="rex-redaxo-logo-d" fill="#5B6D69" d="M188.644,0.586h-36.84l-7.718,76.447l40.557-0.002C222.328,77.031,228.864,0.586,188.644,0.586z
	 M196.723,37.083c-1.333,14.044-6.473,20.568-12.501,20.568h-18.704l3.8-37.696h18.554
	C193.558,19.955,197.692,26.881,196.723,37.083z"/>
<path class="rex-redaxo-logo-a" fill="#5B6D69" d="M264.859,0.585h-15.021c-16.886,0-26.978,11.163-28.972,28.706l-4.818,47.804h19.478l2.438-24.197h32.456
	l-2.498,24.197h19.483l4.729-45.826C293.999,12.785,282.114,0.644,264.859,0.585z M272.855,29.314l-0.659,6.387h-32.497l0.45-4.466
	c0.867-8.54,3.691-11.185,9.741-11.389h14.95C271.29,19.87,273.577,23.234,272.855,29.314z"/>
<path class="rex-redaxo-logo-x" fill="#5B6D69" d="M311.745,0.767l14.184,23.392l14.995-23.392h24.255l-27.466,41.425l23.817,34.774h-22.812l-11.53-18.139
	l-12.075,18.139H290l24.86-36.446L290.034,0.767H311.745L311.745,0.767z"/>
<path class="rex-redaxo-logo-o" fill="#5B6D69" d="M402.411,0.236l-17.581,0.01c-16.523,0-27.53,14.562-29.764,36.833
	c-2.358,23.515,6.565,40.447,28.306,40.511l15.423-0.047C417.35,77.578,426.707,64.435,429.26,39
	C431.827,13.412,419.862,0.236,402.411,0.236z M409.717,39.424c-1.526,14.687-5.066,18.533-12.146,18.533
	c-1.647,0-13.682,0.047-13.682,0.047c-6.56,0.144-10.979-3.455-9.41-18.633c1.408-13.63,5.234-19.539,11.752-19.539
	c0,0,14.791-0.009,15.735-0.009C409.081,19.823,411.196,24.145,409.717,39.424z"/>
<path class="rex-redaxo-logo-cms" fill="#5B6D69" d="M456.72,56.758l-10.731-0.002c-2.577,0-4.087,0.916-4.795,7.009c-0.629,5.405,1.098,6.791,3.673,6.791
	c2.01,0,6.627,0.041,10.46,0.02l-0.715,7.088c-3.909,0.02-8.304-0.025-10.229-0.025c-7.386,0-10.999-5.635-10.236-14.584
	c0.705-8.277,4.339-13.381,11.187-13.381l12.104,0.002L456.72,56.758z M514.869,56.649l-11.608,0.004
	c-2.978,0-2.823,3.566-0.449,3.566l4.904,0.008c11.771,0,10.956,17.351-0.929,17.351l-14.01-0.022l0.715-7.087l13.55,0.023
	c2.729,0,2.698-3.798,0.422-3.798l-4.652-0.004c-11.85,0-11.245-17.121,0.909-17.121l11.863-0.006L514.869,56.649L514.869,56.649z
	 M479.188,56.748l-2.109,20.93h-7.121l2.11-20.93l-4.965-0.047l-1.952,20.977h-7.115l2.619-28.153l20.618,0.141
	c6.308,0.021,10.652,4.504,9.971,11.26l-1.728,16.754h-7.122l1.802-17.469c0.256-2.535-0.758-3.449-2.929-3.461L479.188,56.748
	L479.188,56.748z"/>
<path class="rex-redaxo-logo-reg" fill="#5B6D69" d="M451.522,0c7.94,0,14.377,6.438,14.377,14.413c0,7.938-6.438,14.375-14.377,14.375
	c-7.937,0-14.375-6.437-14.375-14.375C437.147,6.438,443.586,0,451.522,0z M443.937,22.189c4.161,4.263,11.013,4.267,15.21,0
	c4.272-4.309,4.272-11.282,0-15.591c-4.197-4.267-11.049-4.263-15.21,0c-2.063,2.065-3.224,4.869-3.224,7.814
	C440.714,17.317,441.872,20.121,443.937,22.189z M454.064,15.684l3.975,7.269h-4.889l-3.08-6.099l-0.747,6.099h-4.165L447.3,5.575
	h5.223c4.277,0,6.517,2.54,5.263,6.505C457.231,13.932,455.92,15.144,454.064,15.684L454.064,15.684z M451.118,13.072
	c1.465,0,2.26-0.6,2.567-1.584c0.513-1.451-0.095-2.347-1.792-2.347h-0.872l-0.48,3.931H451.118L451.118,13.072z"/>
</svg>
