<svg xmlns="http://www.w3.org/2000/svg" width="516.134" height="77.678" viewBox="0 0 516.134 77.678"><path fill="#5B6D69" d="M401.965 19.823c-.944 0-15.735.009-15.735.009-6.518 0-10.344 5.909-11.752 19.539-1.568 15.178 2.851 18.777 9.41 18.633 0 0 12.034-.047 13.682-.047 7.08 0 10.62-3.846 12.146-18.533 1.48-15.279-.635-19.601-7.751-19.601zm.446-19.587c17.451 0 29.416 13.176 26.849 38.764-2.553 25.434-11.91 38.578-30.466 38.543l-15.422.047c-21.741-.064-30.664-16.996-28.306-40.511 2.233-22.271 13.24-36.833 29.764-36.833l17.581-.01zM239.699 35.701h32.497l.659-6.387c.722-6.08-1.565-9.444-8.014-9.468h-14.951c-6.049.204-8.874 2.849-9.741 11.389l-.45 4.466zm30.722 17.197h-32.456l-2.439 24.197h-19.477l4.818-47.804c1.994-17.543 12.086-28.706 28.972-28.706h15.02c17.255.059 29.14 12.2 27.276 30.684l-4.729 45.826h-19.483l2.498-24.197z"/><path fill="#5B6D69" d="M187.872 19.955h-18.554l-3.8 37.697h18.704c6.029 0 11.168-6.525 12.501-20.569.969-10.202-3.165-17.128-8.851-17.128zm.772-19.369c40.22 0 33.684 76.445-4.001 76.445l-40.556.002 7.717-76.447h36.84zM145.387 19.876l-36.62-.007c-4.733 0-8.07 2.678-9.695 9.58h38.772l-1.733 17.197h-38.888c.302 7.949 2.9 10.555 9.557 10.58 5.591.023 23.705.291 34.805.346l-1.993 19.461h-33.421c-19.704 0-30.603-15.363-28.096-39.864 2.647-25.87 13.007-36.591 30.669-36.591l38.572.008-1.929 19.29zM23.762 34.529h22.694c5.715 0 9.697-2.852 9.697-7.567 0-3.574-2.76-6.984-7.741-6.984-3.859 0-14.714-.059-23.173-.102l-1.477 14.653zm36.725 16.461l11.55 26.043h-21.2l-10.255-23.125h-18.773l-2.332 23.125h-19.477l7.693-76.441 40.235-.017c18.08 0 28.767 14.029 27.661 26.592-.873 9.903-4.504 18.04-15.102 23.823z"/><path fill="#5B6D69" d="M311.745.767l14.183 23.392 14.995-23.392h24.255l-27.466 41.426 23.818 34.774h-22.813l-11.53-18.139-12.075 18.139h-25.112l24.86-36.447-24.826-39.753h21.711z"/><path fill="#5B6D69" d="M456.72 56.758l-10.731-.002c-2.577 0-4.087.916-4.795 7.008-.629 5.406 1.098 6.791 3.673 6.791 2.009 0 6.627.041 10.46.02l-.715 7.088c-3.909.02-8.304-.025-10.23-.025-7.385 0-10.999-5.635-10.236-14.584.705-8.277 4.339-13.381 11.187-13.381l12.103.002-.716 7.083zM514.869 56.65l-11.609.004c-2.977 0-2.823 3.566-.449 3.566l4.904.008c11.772 0 10.956 17.35-.928 17.35l-14.01-.023.715-7.086 13.55.023c2.728 0 2.698-3.797.421-3.797l-4.652-.004c-11.85 0-11.245-17.121.909-17.121l11.864-.006-.715 7.086zM479.188 56.748l-2.109 20.93h-7.121l2.11-20.93-4.965-.047-1.952 20.977h-7.115l2.619-28.154 20.618.141c6.308.021 10.652 4.504 9.971 11.26l-1.728 16.754h-7.122l1.802-17.469c.256-2.535-.758-3.449-2.929-3.461h-2.079v-.001z"/><path fill="#5B6D69" d="M451.522 0c7.94 0 14.377 6.438 14.377 14.413 0 7.938-6.438 14.375-14.377 14.375-7.937 0-14.375-6.437-14.375-14.375 0-7.975 6.438-14.413 14.375-14.413zm-7.585 22.189c4.161 4.263 11.013 4.267 15.21 0 4.272-4.309 4.272-11.282 0-15.591-4.197-4.267-11.049-4.263-15.21 0-2.063 2.065-3.224 4.869-3.224 7.814 0 2.905 1.159 5.709 3.224 7.777zm10.127-6.505l3.975 7.269h-4.889l-3.08-6.099-.747 6.099h-4.165l2.141-17.378h5.223c4.277 0 6.517 2.54 5.263 6.505-.554 1.852-1.866 3.064-3.721 3.604zm-2.946-2.612c1.465 0 2.259-.6 2.567-1.584.513-1.451-.095-2.347-1.792-2.347h-.872l-.48 3.931h.577z"/></svg>